<mxfile host="65bd71144e" modified="2020-12-10T06:19:40.109Z" agent="5.0 (X11; Linux x86_64) AppleWebKit/537.36 (KHTML, like Gecko) Code/1.51.1 Chrome/83.0.4103.122 Electron/9.3.3 Safari/537.36" version="13.6.5" etag="Yx9VNfK5i4gglKLcrHsK">
    <diagram id="hQ4ECEdRvilnIePHkAQE" name="Page-1">
        <mxGraphModel dx="1204" dy="544" grid="1" gridSize="10" guides="1" tooltips="1" connect="1" arrows="1" fold="1" page="1" pageScale="1" pageWidth="827" pageHeight="1169" math="0" shadow="0">
            <root>
                <mxCell id="0"/>
                <mxCell id="1" parent="0"/>
                <mxCell id="4" value="刷新" style="html=1;shadow=0;dashed=0;shape=mxgraph.bootstrap.rrect;rSize=5;strokeColor=none;strokeWidth=1;fillColor=#0085FC;fontColor=#FFFFFF;whiteSpace=wrap;align=center;verticalAlign=middle;spacingLeft=0;fontStyle=0;fontSize=16;spacing=5;" vertex="1" parent="1">
                    <mxGeometry x="560" y="330" width="80" height="40" as="geometry"/>
                </mxCell>
                <mxCell id="5" value="变更申请" style="html=1;shadow=0;dashed=0;shape=mxgraph.bootstrap.rrect;rSize=5;strokeColor=none;strokeWidth=1;fillColor=#0085FC;fontColor=#FFFFFF;whiteSpace=wrap;align=center;verticalAlign=middle;spacingLeft=0;fontStyle=0;fontSize=16;spacing=5;" vertex="1" parent="1">
                    <mxGeometry x="660" y="330" width="80" height="40" as="geometry"/>
                </mxCell>
                <mxCell id="9" value="普通模式" style="strokeColor=#006EAF;fillColor=#1ba1e2;rSize=5;perimeter=none;whiteSpace=wrap;resizeWidth=1;align=center;spacing=20;fontSize=14;fontColor=#ffffff;spacingRight=10;" vertex="1" parent="1">
                    <mxGeometry x="280" y="240" width="110" height="40" as="geometry"/>
                </mxCell>
                <mxCell id="10" value="" style="shape=triangle;direction=south;fillColor=#0085FC;strokeColor=none;perimeter=none;" vertex="1" parent="9">
                    <mxGeometry x="1" y="0.5" width="10" height="5" relative="1" as="geometry">
                        <mxPoint x="-17" y="-2.5" as="offset"/>
                    </mxGeometry>
                </mxCell>
                <mxCell id="13" value="审批模式" style="text;html=1;strokeColor=none;fillColor=none;align=center;verticalAlign=middle;whiteSpace=wrap;rounded=0;" vertex="1" parent="1">
                    <mxGeometry x="150" y="250" width="90" height="20" as="geometry"/>
                </mxCell>
            </root>
        </mxGraphModel>
    </diagram>
</mxfile>